<?xml version="1.0" encoding="UTF-8" standalone="no"?>
<!-- Generator: Adobe Illustrator 16.0.0, SVG Export Plug-In . SVG Version: 6.00 Build 0)  -->

<svg
   xmlns:dc="http://purl.org/dc/elements/1.1/"
   xmlns:cc="http://creativecommons.org/ns#"
   xmlns:rdf="http://www.w3.org/1999/02/22-rdf-syntax-ns#"
   xmlns:svg="http://www.w3.org/2000/svg"
   xmlns="http://www.w3.org/2000/svg"
   xmlns:sodipodi="http://sodipodi.sourceforge.net/DTD/sodipodi-0.dtd"
   xmlns:inkscape="http://www.inkscape.org/namespaces/inkscape"
   version="1.1"
   id="Layer_1"
   x="0px"
   y="0px"
   width="512px"
   height="512px"
   viewBox="0 0 512 512"
   enable-background="new 0 0 512 512"
   xml:space="preserve"
   inkscape:version="0.48.4 r9939"
   sodipodi:docname="icon.png"><metadata
     id="metadata9"><rdf:RDF><cc:Work
         rdf:about=""><dc:format>image/svg+xml</dc:format><dc:type
           rdf:resource="http://purl.org/dc/dcmitype/StillImage" /><dc:title></dc:title></cc:Work></rdf:RDF></metadata><defs
     id="defs7" /><sodipodi:namedview
     pagecolor="#ffffff"
     bordercolor="#666666"
     borderopacity="1"
     objecttolerance="10"
     gridtolerance="10"
     guidetolerance="10"
     inkscape:pageopacity="0"
     inkscape:pageshadow="2"
     inkscape:window-width="1920"
     inkscape:window-height="1056"
     id="namedview5"
     showgrid="false"
     inkscape:zoom="0.92187498"
     inkscape:cx="163.33937"
     inkscape:cy="257.74637"
     inkscape:window-x="0"
     inkscape:window-y="24"
     inkscape:window-maximized="1"
     inkscape:current-layer="Layer_1" /><rect
     style="fill:#3d4241;fill-opacity:1;stroke:#3d4241;stroke-width:3.14100002999999983;stroke-linecap:round;stroke-linejoin:round;stroke-miterlimit:4;stroke-opacity:1;stroke-dasharray:none"
     id="rect3760"
     width="508.85864"
     height="508.85864"
     x="1.5706787"
     y="1.5706787"
     ry="81.173592"
     rx="97.423622" /><path
     d="M462,280.72v-49.44l-46.414-16.48c-3.903-15.098-9.922-29.343-17.675-42.447l0.063-0.064l21.168-44.473l-34.96-34.96  l-44.471,21.167l-0.064,0.064c-13.104-7.753-27.352-13.772-42.447-17.673L280.72,50h-49.44L214.8,96.415  c-15.096,3.9-29.343,9.919-42.447,17.675l-0.064-0.066l-44.473-21.167l-34.96,34.96l21.167,44.473l0.066,0.064  c-7.755,13.104-13.774,27.352-17.675,42.447L50,231.28v49.44l46.415,16.48c3.9,15.096,9.921,29.343,17.675,42.447l-0.066,0.064  l-21.167,44.471l34.96,34.96l44.473-21.168l0.064-0.063c13.104,7.753,27.352,13.771,42.447,17.675L231.28,462h49.44l16.48-46.414  c15.096-3.903,29.343-9.922,42.447-17.675l0.064,0.063l44.471,21.168l34.96-34.96l-21.168-44.471l-0.063-0.064  c7.753-13.104,13.771-27.352,17.675-42.447L462,280.72z M256,338.4c-45.509,0-82.4-36.892-82.4-82.4c0-45.509,36.891-82.4,82.4-82.4  c45.509,0,82.4,36.891,82.4,82.4C338.4,301.509,301.509,338.4,256,338.4z"
     id="path3" /><path
     style="opacity:0.2;fill:#64686a;fill-opacity:1;stroke:#d2d2d2;stroke-width:6.50847435;stroke-linecap:square;stroke-miterlimit:4;stroke-opacity:1;stroke-dasharray:none"
     d="m 223.81982,437.34244 c -7.29613,-20.8241 -9.02103,-23.91152 -14.06646,-25.17786 -3.16283,-0.79381 -12.93588,-4.76312 -21.71789,-8.82065 l -15.9673,-7.37733 -22.34398,10.5396 -22.34399,10.53963 -16.57426,-16.67204 -16.574264,-16.67205 9.833354,-21.18658 c 5.40835,-11.65262 9.83336,-22.62098 9.83336,-24.37415 0,-1.75314 -2.09107,-7.28641 -4.64683,-12.29611 -2.55576,-5.00971 -6.27059,-13.88555 -8.25518,-19.72413 l -3.608348,-10.61558 -22.660072,-8.04472 -22.660072,-8.04471 -0.61099,-23.95207 -0.61099,-23.95206 23.054608,-8.21393 c 13.565598,-4.83317 23.534527,-9.6283 24.220622,-11.65029 1.025577,-3.02248 6.550072,-16.74619 14.271382,-35.45236 2.19981,-5.3294 1.33346,-8.26848 -7.94019,-26.93718 l -10.409415,-20.95507 17.096555,-17.09656 17.09655,-17.09655 22.11135,10.18909 22.11134,10.18908 14.65205,-6.7015 c 8.05862,-3.68583 17.4265,-7.37731 20.8175,-8.203289 6.69813,-1.631539 9.74119,-7.188889 18.62634,-34.016084 l 4.8501,-14.644068 24.22989,0.0041 24.22991,0.0041 7.37047,21.148476 c 8.52854,24.471372 9.27002,25.665372 17.1253,27.575916 3.23241,0.786179 12.46991,4.444809 20.52777,8.130289 l 14.65069,6.70087 21.9456,-10.32261 21.94562,-10.322607 16.87005,16.771117 16.87005,16.77111 -10.32283,22.10669 -10.32285,22.10669 4.86814,9.62907 c 2.67748,5.29598 6.56367,15.03972 8.63599,21.65275 l 3.76786,12.0237 23.67885,8.31513 23.67888,8.31514 -0.61091,23.86996 -0.61089,23.86997 -22.64845,8.08202 -22.64843,8.08203 -3.61374,10.62444 c -1.98758,5.84343 -6.16465,15.65598 -9.28241,21.80564 l -5.66864,11.18124 10.89545,22.28005 10.89546,22.28004 -16.6526,16.75084 -16.65258,16.75082 -22.66097,-10.58165 -22.66099,-10.58167 -10.15951,5.08652 c -5.58775,2.79758 -15.2268,6.74506 -21.42013,8.77217 -12.30063,4.02607 -10.30929,0.92309 -23.08048,35.96518 l -5.13942,14.10169 -23.64958,0.60247 -23.64959,0.60247 -8.31586,-23.73457 z M 283.68655,333.6726 c 20.52237,-6.45815 41.33203,-26.42706 48.98981,-47.01054 15.83336,-42.55875 -0.96455,-86.6154 -40.43307,-106.04569 -13.42271,-6.60798 -16.01248,-7.11718 -36.19758,-7.11718 -19.264,0 -23.22334,0.69185 -34.75749,6.07351 -42.35127,19.76045 -60.16672,68.95405 -40.32619,111.35228 17.97799,38.41807 60.39335,56.06873 102.72452,42.74762 z"
     id="path3754"
     inkscape:connector-curvature="0" /><path
     inkscape:connector-curvature="0"
     d="m 462.00001,280.72 v -49.44 l -46.414,-16.48 c -3.903,-15.098 -9.922,-29.343 -17.675,-42.447 l 0.063,-0.064 21.168,-44.473 -34.96,-34.959997 -44.47102,21.166997 -0.064,0.064 c -13.104,-7.753 -27.352,-13.772 -42.447,-17.672997 l -16.48,-46.414 h -49.44 l -16.48,46.415 c -15.096,3.899997 -29.343,9.918997 -42.447,17.674997 l -0.064,-0.066 -44.473,-21.166997 -34.959999,34.959997 21.166999,44.473 0.066,0.064 c -7.755,13.104 -13.774,27.352 -17.674999,42.447 L 49.999988,231.28 v 49.44 l 46.415003,16.48 c 3.899999,15.096 9.920999,29.343 17.674999,42.447 l -0.066,0.064 -21.166999,44.471 34.959999,34.96 44.473,-21.168 0.064,-0.063 c 13.104,7.753 27.352,13.771 42.447,17.675 l 16.479,46.414 h 49.44 l 16.48,-46.414 c 15.096,-3.903 29.343,-9.922 42.447,-17.675 l 0.064,0.063 44.47102,21.168 34.96,-34.96 -21.168,-44.471 -0.063,-0.064 c 7.753,-13.104 13.771,-27.352 17.675,-42.447 l 46.414,-16.48 z M 255.99999,338.4 c -45.509,0 -82.4,-36.892 -82.4,-82.4 0,-45.509 36.891,-82.4 82.4,-82.4 45.509,0 82.4,36.891 82.4,82.4 0,45.509 -36.891,82.4 -82.4,82.4 z"
     id="path3-8"
     style="opacity:0.2510288" /></svg>